<svg width="130" height="101" viewBox="0 0 130 101" fill="none" xmlns="http://www.w3.org/2000/svg">
<mask id="mask0_124_167" style="mask-type:alpha" maskUnits="userSpaceOnUse" x="14" y="0" width="101" height="101">
<circle cx="64.1201" cy="50.4427" r="50" fill="#FFA304"/>
</mask>
<g mask="url(#mask0_124_167)">
<path d="M121.305 34.7583H-0.272949C-0.272949 23.0399 52.7528 -15.9237 104.607 -14.4589C146.09 -13.2871 133.024 18.8409 121.305 34.7583Z" fill="#FFA304"/>
<path d="M15.453 66.0648H137.031C137.031 77.7832 84.0056 116.747 32.1518 115.282C-9.33131 114.11 3.73466 81.9823 15.453 66.0648Z" fill="#FFA304"/>
<circle cx="64.12" cy="50.4427" r="38.4073" fill="#327F79"/>
</g>
<path d="M1.23702 43.0164L7.78744 58.8076C7.97715 59.2649 8.42359 59.5631 8.91874 59.5631H127.846C128.726 59.5631 129.319 58.6631 128.972 57.8548L122.187 42.0636C121.994 41.6139 121.552 41.3223 121.062 41.3223H2.36832C1.49518 41.3223 0.902469 42.2099 1.23702 43.0164Z" fill="#F3F3F3"/>
<path d="M12.2808 55.0849V47.1115H9.53418V45.6182H16.6008V47.1115H13.8408V55.0849H12.2808ZM18.0059 55.0849V45.6182H19.5659V55.0849H18.0059ZM21.8862 45.6182H23.3128L26.6195 50.0982L29.9395 45.6182H31.3662V55.0849H29.7928V48.2982L26.6328 52.5915L23.4462 48.2849V55.0849H21.8862V45.6182ZM33.683 55.0849V45.6182H39.3764V47.1115H35.243V49.5382H38.5764V51.0315H35.243V53.5915H39.3764V55.0849H33.683ZM45.7183 55.0849V47.1115H42.9717V45.6182H50.0383V47.1115H47.2783V55.0849H45.7183ZM55.2941 53.7382C56.2185 53.7382 57.0007 53.4093 57.6407 52.7515C58.2807 52.0938 58.6007 51.2938 58.6007 50.3515C58.6007 49.4093 58.2807 48.6093 57.6407 47.9515C57.0007 47.2938 56.2185 46.9649 55.2941 46.9649C54.3607 46.9649 53.5741 47.2938 52.9341 47.9515C52.2941 48.6093 51.9741 49.4093 51.9741 50.3515C51.9741 51.2938 52.2941 52.0938 52.9341 52.7515C53.5741 53.4093 54.3607 53.7382 55.2941 53.7382ZM58.7607 53.8182C57.8096 54.7693 56.6541 55.2449 55.2941 55.2449C53.9341 55.2449 52.7785 54.7738 51.8274 53.8315C50.8763 52.8804 50.4007 51.7204 50.4007 50.3515C50.4007 48.9826 50.8763 47.8271 51.8274 46.8849C52.7785 45.9338 53.9341 45.4582 55.2941 45.4582C56.6541 45.4582 57.8096 45.9338 58.7607 46.8849C59.7119 47.836 60.1874 48.9915 60.1874 50.3515C60.1874 51.7115 59.7119 52.8671 58.7607 53.8182ZM65.0372 55.0849V45.6182H70.7305V47.1115H66.5972V49.5382H69.9305V51.0315H66.5972V53.5915H70.7305V55.0849H65.0372ZM80.7775 55.0849H79.4175L74.0842 48.2715V55.0849H72.5242V45.6182H73.8842L79.2042 52.4182V45.6182H80.7775V55.0849ZM87.6171 55.2449C86.1326 55.2449 84.906 54.7782 83.9371 53.8449C82.9771 52.9115 82.4971 51.7471 82.4971 50.3515C82.4971 48.9738 82.9682 47.8138 83.9104 46.8715C84.8615 45.9293 86.0438 45.4582 87.4571 45.4582C88.9682 45.4582 90.1904 45.9338 91.1238 46.8849L90.0571 47.9915C89.3726 47.3071 88.506 46.9649 87.4571 46.9649C86.4793 46.9649 85.6704 47.2938 85.0304 47.9515C84.3904 48.6004 84.0704 49.4004 84.0704 50.3515C84.0704 51.3293 84.3904 52.1382 85.0304 52.7782C85.6793 53.4182 86.5371 53.7382 87.6038 53.7382C88.6171 53.7382 89.3726 53.5338 89.8704 53.1249V51.0182H87.4971V49.5515H91.3904V53.8849C90.9815 54.3293 90.4393 54.6671 89.7638 54.8982C89.0882 55.1293 88.3726 55.2449 87.6171 55.2449ZM93.2794 55.0849V45.6182H94.8394V53.5915H99.1727V55.0849H93.2794ZM100.597 55.0849V45.6182H102.157V55.0849H100.597ZM107.117 55.2449C106.362 55.2449 105.682 55.0893 105.077 54.7782C104.473 54.4671 104.028 54.0538 103.744 53.5382L104.971 52.5649C105.495 53.3738 106.228 53.7782 107.171 53.7782C107.624 53.7782 107.993 53.6715 108.277 53.4582C108.562 53.236 108.704 52.9515 108.704 52.6049C108.704 51.9738 108.255 51.4938 107.357 51.1649L106.317 50.7915C105.553 50.516 104.988 50.1649 104.624 49.7382C104.26 49.3026 104.077 48.7649 104.077 48.1249C104.077 47.316 104.366 46.6715 104.944 46.1915C105.522 45.7026 106.26 45.4582 107.157 45.4582C108.357 45.4582 109.313 45.8893 110.024 46.7515L108.944 47.8049C108.455 47.2182 107.855 46.9249 107.144 46.9249C106.726 46.9249 106.371 47.0226 106.077 47.2182C105.793 47.4138 105.651 47.6804 105.651 48.0182C105.651 48.3471 105.757 48.6093 105.971 48.8049C106.193 48.9915 106.566 49.1826 107.091 49.3782L108.051 49.7382C108.78 50.0138 109.335 50.3738 109.717 50.8182C110.1 51.2626 110.286 51.8271 110.277 52.5115C110.277 53.3293 109.984 53.9915 109.397 54.4982C108.811 54.996 108.051 55.2449 107.117 55.2449ZM111.964 55.0849V45.6182H113.524V49.5382H118.204V45.6182H119.764V55.0849H118.204V51.0182H113.524V55.0849H111.964Z" fill="#373737"/>
</svg>
