<svg width="1492" height="450" viewBox="0 0 1492 450" fill="none" xmlns="http://www.w3.org/2000/svg">
<mask id="mask0_81_313" style="mask-type:alpha" maskUnits="userSpaceOnUse" x="0" y="0" width="1492" height="450">
<rect x="0.971191" y="0.732281" width="1491" height="448.93" fill="white"/>
</mask>
<g mask="url(#mask0_81_313)">
<path d="M663.159 379.132C663.137 379.254 663.145 379.379 663.182 379.497C663.218 379.615 663.282 379.723 663.368 379.811C663.455 379.9 663.561 379.966 663.678 380.004C663.795 380.043 663.92 380.053 664.042 380.033C673.089 378.631 682.22 378.389 691.436 379.306C701.382 380.302 711.059 386.296 717.9 393.523C720.706 396.497 722.602 400.456 723.59 405.4C723.8 406.455 724.436 407.056 725.497 407.203C731.629 408.01 737.665 407.741 743.639 408.468C765.28 411.125 785.329 411.758 807.049 413.656C816.38 414.478 824.949 414.568 832.757 413.924C833.188 413.89 833.616 414.017 833.957 414.28C834.298 414.543 834.528 414.924 834.601 415.348C834.769 416.328 834.364 417.003 833.387 417.372C830.949 418.268 828.28 418.811 825.38 419.001C811.499 419.908 798.522 421.036 786.449 422.385C776.455 423.503 763.573 424.188 747.8 424.441C733.977 424.663 720.453 425.833 706.756 426.798C694.357 427.662 681.553 427.52 668.345 426.371C657.091 425.39 646.247 427.652 635.182 427.762C629.297 427.826 623.376 427.515 617.418 426.829C606.837 425.606 596.833 425.585 587.408 426.766C579.905 427.715 572.654 428.363 565.656 428.711C543.316 429.839 518.323 428.437 490.677 424.504C484.393 423.608 476.628 424.172 467.381 426.197C461.276 427.536 453.285 428.042 443.407 427.715C425.171 427.098 408.621 426.228 390.274 428.3C375.815 429.934 367.892 430.799 366.505 430.894C339.279 432.612 313.75 431.684 289.918 428.11C276.31 426.075 262.088 425.928 247.251 427.667C210.384 432.016 172.271 432.159 134.065 431.51C124.587 431.352 115.224 431.421 105.977 431.716C97.1085 432.001 87.7354 432.254 77.8579 432.475C54.4043 432.997 30.8403 432.143 8.15902 430.878C-1.99162 430.308 -11.4488 432.269 -21.3315 432.776C-52.9813 434.373 -88.5558 435.021 -122.27 431.51C-129.08 430.799 -135.526 428.3 -142.871 428.173C-157.929 427.92 -173.838 427.04 -190.598 425.532C-194.365 425.2 -206.124 423.777 -207.763 419.792C-208.085 418.996 -208.115 418.112 -207.85 417.296C-207.585 416.48 -207.04 415.784 -206.313 415.332C-199.756 411.283 -192.463 408.758 -184.435 407.757C-171.81 406.191 -160.477 405.463 -147.6 407.504C-144.973 407.925 -142.377 407.952 -139.813 407.583C-139.269 407.508 -138.775 407.222 -138.437 406.785C-138.098 406.348 -137.942 405.794 -138.001 405.242C-138.348 402.005 -139.283 399.053 -140.806 396.386C-144.841 389.269 -140.444 380.714 -135.227 375.526C-123.573 363.929 -110.333 356.127 -95.5068 352.121C-85.871 349.516 -76.4402 350.001 -67.2142 353.575C-56.7011 357.656 -46.377 367.477 -47.1178 379.559C-47.1676 380.35 -47.4829 381.102 -48.0123 381.69C-48.5418 382.279 -49.2543 382.67 -50.0338 382.801C-52.3193 383.196 -58.5767 384.414 -58.7659 387.324C-58.7757 387.505 -58.7448 387.685 -58.6754 387.852C-58.6059 388.019 -58.4999 388.168 -58.365 388.288C-58.2302 388.408 -58.07 388.497 -57.8965 388.546C-57.723 388.595 -57.5407 388.605 -57.3631 388.573C-53.6327 387.888 -49.9182 387.055 -46.2194 386.075C-38.2124 383.94 -29.701 384.224 -21.3472 383.544C-21.0448 383.516 -20.7569 383.402 -20.517 383.218C-20.2771 383.033 -20.095 382.784 -19.9917 382.501C-19.645 381.552 -20.1598 380.714 -21.5364 379.986C-21.7849 379.862 -22.0614 379.802 -22.3402 379.812L-35.8796 380.192C-37.4033 380.244 -37.9865 379.527 -37.6293 378.041C-35.328 368.436 -30.1634 363.085 -22.1353 361.989C-22.0006 361.969 -21.873 361.916 -21.7646 361.833C-21.6561 361.751 -21.5702 361.642 -21.5151 361.517C-21.46 361.392 -21.4373 361.256 -21.4493 361.12C-21.4613 360.983 -21.5076 360.853 -21.5837 360.74C-23.5855 357.766 -26.8481 355.394 -27.9672 352.041C-29.2492 348.214 -28.7868 344.445 -26.5802 340.734C-15.6572 322.326 5.55824 315.193 26.8052 315.446C32.7947 315.51 41.6687 317.012 44.5059 322.942C46.1766 326.464 47.8789 326.48 49.6127 322.99C53.5216 315.177 62.6635 310.844 70.4972 315.778C74.0804 318.024 77.8369 319.816 81.7669 321.155C83.3535 321.682 84.0576 321.113 83.879 319.447L82.9805 310.971C82.8124 309.315 81.9192 308.298 80.301 307.918C68.6845 305.167 65.0593 286.648 79.5917 285.082C79.806 285.061 80.0096 284.979 80.1793 284.847C80.349 284.714 80.4781 284.536 80.5519 284.331C80.6257 284.127 80.6414 283.906 80.597 283.692C80.5527 283.478 80.4501 283.28 80.301 283.121C65.5164 267.496 68.4639 244.454 84.5567 231.217C97.4499 220.637 113.354 220.02 129.257 224.116C129.631 224.213 130.02 224.235 130.402 224.18C130.784 224.125 131.152 223.994 131.484 223.796C131.816 223.598 132.107 223.335 132.339 223.024C132.571 222.713 132.739 222.358 132.835 221.981C134.254 216.383 137.233 211.196 143.033 209.203C148.266 207.4 152.89 207.801 156.904 210.405C157.461 210.763 158.075 210.969 158.748 211.022C159.599 211.095 160.256 210.695 160.718 209.82C160.852 209.568 160.92 209.287 160.916 209.002C160.911 208.717 160.835 208.437 160.692 208.191C160.55 207.944 160.348 207.737 160.104 207.59C159.861 207.444 159.584 207.362 159.299 207.353C154.508 207.173 149.732 205.798 144.972 203.225C136.629 198.723 131.711 191.111 130.219 180.389C128.8 170.33 131.275 155.591 140.748 149.566C144.011 147.478 148.014 148.285 151.687 148.032C151.901 148.018 152.11 147.955 152.297 147.848C152.484 147.741 152.645 147.593 152.766 147.415C152.888 147.236 152.967 147.033 152.999 146.819C153.03 146.605 153.013 146.387 152.947 146.181C152.191 143.809 151.529 141.469 151.86 138.922C154.445 118.727 181.618 93.2338 201.399 109.744C201.696 109.986 202.06 110.125 202.438 110.142C202.816 110.159 203.187 110.053 203.496 109.839C218.848 99.2275 241.104 100.698 258.079 106.993C263.186 108.89 268.634 111.073 274.424 113.54C285.93 118.427 292.897 127.093 292.487 139.761C292.151 150.23 287.922 158.981 279.799 166.013C279.274 166.466 279.316 166.862 279.925 167.199C280.503 167.515 281.118 167.573 281.769 167.373C282.389 167.173 283.025 167.141 283.676 167.278C293.858 169.366 300.883 175.238 304.75 184.896C306.484 189.208 306.767 193.315 305.601 197.215C304.624 200.505 302.244 202.64 300.305 205.328C300.216 205.453 300.16 205.598 300.142 205.75C300.125 205.903 300.146 206.057 300.204 206.201C300.262 206.344 300.355 206.471 300.474 206.57C300.594 206.669 300.736 206.737 300.888 206.768C310.976 208.75 318.09 214.511 322.23 224.053C322.376 224.387 322.642 224.653 322.975 224.8C323.308 224.946 323.683 224.962 324.027 224.844C328.724 223.215 333.2 220.052 337.976 219.53C343.083 218.961 347.959 219.372 352.603 220.764C354.668 221.38 356.559 220.969 358.104 219.435C364.819 212.73 369.957 205.85 380.044 204.158C403.545 200.236 421.277 219.182 433.477 236.515C440.523 246.542 442.036 259.415 438.931 271.086C437.15 277.807 431.081 283.437 425.959 288.008C425.845 288.108 425.754 288.231 425.691 288.369C425.628 288.508 425.594 288.658 425.591 288.81C425.588 288.963 425.616 289.115 425.674 289.257C425.732 289.4 425.818 289.529 425.927 289.637C434.391 297.924 439.892 304.803 440.349 317.724C440.622 325.431 438.227 331.904 433.162 337.144C431.334 339.031 431.733 339.98 434.36 339.991C443.407 340.007 448.356 347.835 448.451 356.485C448.455 356.741 448.542 356.989 448.698 357.191C448.855 357.394 449.072 357.54 449.318 357.608C454.85 359.032 454.724 349.701 455.292 346.601C458.097 331.198 467.334 317.123 483.332 314.829C497.187 312.853 505.966 322.073 510.805 333.823C510.967 334.216 511.219 334.565 511.541 334.841C511.864 335.118 512.247 335.313 512.659 335.412C513.071 335.511 513.501 335.51 513.913 335.41C514.325 335.309 514.708 335.112 515.029 334.835C518.066 332.21 521.208 331.092 524.455 331.482C535.835 332.842 544.488 337.65 545.103 350.713C545.145 351.44 545.528 351.815 546.253 351.836C548.76 351.915 551.423 351.868 553.85 352.642C558.495 354.119 561.789 357.092 563.733 361.562C564.9 364.203 564.569 366.702 565.136 369.422C565.262 370.012 565.614 370.355 566.192 370.45C573.695 371.715 578.644 376.902 583.64 382.358C583.735 382.464 583.856 382.542 583.991 382.584C584.126 382.626 584.27 382.632 584.41 382.6C584.549 382.568 584.677 382.499 584.783 382.401C584.889 382.303 584.968 382.179 585.012 382.042C592.719 357.039 625.867 348.657 648.059 353.006C654.133 354.208 658.851 357.123 662.213 361.752C665.46 366.227 664.105 373.897 663.159 379.132Z" fill="#FFA304"/>
<path d="M1459.32 192.943C1463.19 186.74 1468.72 180.564 1464.28 172.736C1461.15 167.181 1457.87 163.073 1454.44 160.412C1451.07 157.798 1445.85 156.612 1438.78 156.855C1438.48 156.864 1438.36 156.724 1438.4 156.435L1438.46 156.071C1438.49 155.874 1438.58 155.691 1438.72 155.546C1438.86 155.401 1439.03 155.301 1439.23 155.258C1448.84 153.148 1456.45 148.812 1462.05 142.249C1472.46 130.065 1467.5 111.342 1455.91 101.679C1445.63 93.0942 1430.38 92.002 1418.97 98.0517C1418.21 98.4625 1417.4 98.5792 1416.56 98.4018C1416.38 98.3644 1416.2 98.2894 1416.05 98.1816C1415.89 98.0737 1415.76 97.9352 1415.66 97.7743C1415.56 97.6134 1415.49 97.4334 1415.46 97.2452C1415.43 97.057 1415.44 96.8645 1415.48 96.6793C1417.89 87.0445 1416.62 77.5404 1411.69 68.1669C1408.4 61.8838 1404.07 58.0373 1398.69 56.6276C1398.13 56.4782 1397.86 56.1141 1397.89 55.5352C1397.98 53.9761 1398.14 52.4357 1398.38 50.9139C1400.09 40.3688 1395.42 29.0115 1388.24 21.2532C1374.16 6.05876 1351.36 -0.117014 1332.99 11.3944C1332.81 11.509 1332.59 11.5694 1332.38 11.5683C1332.17 11.5672 1331.96 11.5048 1331.78 11.3884C1331.6 11.2719 1331.45 11.1064 1331.36 10.9113C1331.28 10.7163 1331.24 10.5 1331.28 10.288C1333.87 -7.95936 1326.81 -25.1704 1313.95 -38.2502C1285.63 -67.0566 1242.24 -62.6733 1208.17 -46.4566C1190.26 -37.9281 1174.46 -24.4561 1168.49 -5.1585C1168.43 -4.97371 1168.42 -4.77673 1168.46 -4.58685C1168.5 -4.39696 1168.59 -4.22069 1168.71 -4.07528C1168.84 -3.92988 1169.01 -3.82037 1169.19 -3.75741C1169.38 -3.69444 1169.57 -3.68021 1169.76 -3.71612C1178.87 -5.35927 1187.97 -5.36395 1197.05 -3.73014C1214.15 -0.635233 1229.06 10.12 1232.28 27.8211C1232.37 28.2959 1232.62 28.7279 1232.98 29.0478C1233.35 29.3677 1233.81 29.5571 1234.3 29.5857C1246.59 30.2999 1255.56 36.1255 1261.9 46.5166C1268.87 57.9859 1271.88 70.8137 1268.84 83.6835C1266.4 94.0092 1262.06 104.326 1255.82 114.633C1254.96 116.061 1255.36 116.803 1257.03 116.859C1258.28 116.887 1259.44 116.145 1260.83 116.173C1277.91 116.509 1291.56 125.192 1293.64 143.579C1293.66 143.768 1293.73 143.948 1293.84 144.104C1293.95 144.26 1294.09 144.387 1294.26 144.473C1294.43 144.559 1294.62 144.601 1294.81 144.597C1295 144.593 1295.19 144.541 1295.35 144.447C1303.36 139.863 1311.44 136.988 1319.6 135.821C1327.95 134.644 1335.25 137.011 1340.6 143.593C1349.43 154.432 1346.3 169.263 1339.38 180.634C1338.22 182.52 1336.9 184.098 1335.41 185.367C1335.28 185.482 1335.12 185.561 1334.94 185.597C1334.77 185.633 1334.59 185.625 1334.42 185.573C1334.25 185.522 1334.1 185.428 1333.98 185.302C1333.85 185.175 1333.76 185.019 1333.72 184.849C1333.07 182.538 1333.98 180.424 1335.33 178.575C1342.16 169.291 1344.69 155.244 1336.98 145.946C1331.36 139.14 1323.25 138.482 1315.1 140.75C1307.83 142.767 1300.83 145.633 1294.12 149.349C1291.83 150.6 1290.54 149.942 1290.23 147.374C1289.52 141.548 1288.45 135.821 1284.77 130.835C1279.23 123.301 1269.37 120.206 1260.16 120.78C1257.11 120.967 1254.18 121.074 1251.37 121.102C1250.96 121.106 1250.56 121.001 1250.2 120.796C1249.84 120.592 1249.55 120.296 1249.34 119.939C1249.14 119.582 1249.03 119.178 1249.04 118.767C1249.04 118.356 1249.16 117.954 1249.37 117.601C1258.26 102.911 1266.69 87.7166 1265.65 70.1415C1264.77 55.3532 1255.79 40.0607 1241.35 34.4451C1238.19 33.2127 1235.12 33.5208 1231.86 33.6048C1231.15 33.6276 1230.45 33.3831 1229.91 32.9193C1229.37 32.4554 1229.02 31.8058 1228.93 31.0981C1227.26 17.7381 1217.88 7.12307 1205.11 2.4317C1193.56 -1.80688 1181.5 -2.43243 1168.94 0.555112C1159.21 2.85178 1153.42 13.761 1153.17 23.0737C1153.17 23.1584 1153.15 23.2418 1153.11 23.3188C1153.08 23.3958 1153.03 23.4647 1152.97 23.5212C1152.91 23.5777 1152.83 23.6205 1152.75 23.6472C1152.68 23.6738 1152.59 23.6836 1152.51 23.6759C1142.84 22.8823 1134.39 25.2257 1127.15 30.706C1114.34 40.3968 1112.08 58.4061 1119.17 72.1442C1119.26 72.3218 1119.3 72.5184 1119.3 72.7173C1119.29 72.9161 1119.24 73.1113 1119.15 73.286C1119.05 73.4607 1118.92 73.6099 1118.75 73.7207C1118.59 73.8316 1118.4 73.9009 1118.2 73.9226C1106.31 75.0523 1096.78 80.1125 1089.61 89.1031C1081.45 99.3261 1081.09 110.053 1088.54 121.284C1088.67 121.469 1088.74 121.679 1088.77 121.898C1088.79 122.117 1088.76 122.339 1088.69 122.546C1088.61 122.752 1088.49 122.938 1088.33 123.089C1088.16 123.24 1087.97 123.351 1087.76 123.413C1076.58 126.718 1066.31 136.115 1061.33 146.198C1061.01 146.855 1060.49 147.4 1059.86 147.762C1059.22 148.124 1058.49 148.287 1057.75 148.228C1052.83 147.818 1047.45 147.113 1041.62 146.114C1031.48 144.363 1025.28 151.855 1015.92 152.248C1011.99 152.406 1008.2 152.29 1004.56 151.897C994.364 150.791 983.998 155.104 982.652 166.616C982.601 167.044 982.399 167.44 982.082 167.731C981.765 168.021 981.355 168.187 980.926 168.198C973.744 168.38 966.085 167.414 959.128 169.529C949.832 172.367 943.595 178.388 940.415 187.594C939.643 189.821 938.03 189.092 936.333 189.61C929.301 191.748 923.465 194.871 918.827 198.979C916.568 200.996 914.815 203.068 911.617 203.615C903.116 205.043 895.163 203.082 886.886 201.444C882.033 200.482 877.217 200.912 872.438 202.732C872.254 202.804 872.056 202.831 871.859 202.81C871.663 202.79 871.475 202.722 871.31 202.614C871.145 202.506 871.008 202.359 870.912 202.187C870.815 202.015 870.761 201.823 870.755 201.626C870.39 189.849 862.24 179.556 852.575 174.514C840.82 168.38 827.658 165.855 813.088 166.938C805.373 167.517 799.262 170.71 794.754 176.517C787.334 186.081 791.612 197.607 800.744 203.825C801.427 204.291 801.815 204.926 801.908 205.729C801.924 205.87 801.91 206.012 801.867 206.146C801.824 206.281 801.754 206.405 801.66 206.511C801.566 206.616 801.451 206.701 801.322 206.759C801.193 206.818 801.054 206.848 800.912 206.849C787.287 206.999 775.714 212.129 766.194 222.24C765.166 223.342 763.87 223.869 762.309 223.823C759.709 223.739 757.151 223.426 754.636 222.884C736.25 218.888 717.842 217.199 699.41 217.815C683.746 218.347 669.76 220.863 657.454 225.363C650.131 228.042 643.225 230.339 636.735 232.253C634.561 232.883 631.854 232.813 629.595 232.407C608.395 228.626 586.765 230.101 564.704 236.832C561.889 237.691 561.95 238.251 564.887 238.513C584.076 240.203 603.457 240.833 623.03 240.403C630.255 240.249 636.721 242.392 643.875 242.476C660.016 242.691 676.302 243.036 692.733 243.512C709.771 244.007 723.883 245.211 735.067 247.125C741.885 248.283 748.697 249.263 755.505 250.066C761.752 250.813 769.042 251.126 777.374 251.004C785.071 250.902 793.641 251.158 803.086 251.775C815.01 252.559 829.065 253.119 840.287 251.593C851.369 250.08 861.09 250.766 871.765 251.537C878.203 251.999 884.558 251.719 891.305 252.167C899.17 252.69 906.829 252.834 914.282 252.601C921.66 252.377 929.792 252.904 938.676 254.183C962.148 257.535 985.055 255.873 1007.4 249.198C1013.97 247.237 1020.67 247.849 1027.5 251.032C1034.64 254.365 1042.56 254.463 1050.36 255.934C1063.17 258.324 1076.49 260.756 1090.3 263.23C1096.86 264.406 1103.5 264.892 1110.2 264.686C1115.71 264.509 1122.3 263.874 1129.98 262.782C1148.97 260.084 1166.74 259.094 1183.31 259.813C1192.47 260.214 1200.41 259.934 1207.13 258.973C1209.99 258.562 1212.8 258.581 1215.55 259.029C1222.35 260.121 1229.44 261.283 1236.46 261.732C1253.92 262.843 1270.22 262.628 1285.35 261.087C1306.69 258.931 1328.6 253.474 1351.08 244.717C1358.01 242.028 1364.24 243.666 1371.14 243.806C1391.76 244.226 1414.04 243.484 1434.32 242.21C1449.21 241.267 1464.91 238.849 1481.44 234.956C1487.54 233.518 1494.55 232.944 1502.47 233.233C1520.39 233.891 1539.6 233.919 1557.06 234.97C1571.55 235.838 1585 237.406 1600.45 236.188C1604.02 235.899 1610.41 234.872 1619.62 233.107C1623.83 232.295 1629.46 231.511 1633.71 231.679C1643.03 232.062 1651.99 231.501 1660.6 229.998C1660.73 229.974 1660.86 229.918 1660.97 229.834C1661.08 229.75 1661.17 229.64 1661.23 229.515C1661.28 229.39 1661.31 229.252 1661.3 229.115C1661.3 228.977 1661.26 228.843 1661.19 228.724C1661.01 228.407 1660.77 228.136 1660.47 227.912C1660.37 227.837 1660.25 227.786 1660.12 227.758C1647.16 224.985 1635.04 221.288 1621.99 219.887C1618.18 219.481 1614.31 218.123 1611.16 215.924C1606.91 212.955 1601.23 210.883 1594.12 209.706C1570.95 205.869 1547.89 203.054 1525.2 207.508C1524.84 207.577 1524.47 207.552 1524.13 207.437C1523.78 207.321 1523.47 207.119 1523.23 206.849C1518.05 201.22 1512.76 195.184 1506.16 191.683C1492.34 184.387 1474.43 188.798 1460.02 193.812C1459.9 193.855 1459.78 193.86 1459.66 193.827C1459.54 193.795 1459.43 193.726 1459.36 193.63C1459.28 193.534 1459.23 193.416 1459.23 193.293C1459.22 193.169 1459.25 193.047 1459.32 192.943Z" fill="#FFA304"/>
</g>
</svg>
